<?xml version="1.0" encoding="UTF-8"?><svg xmlns="http://www.w3.org/2000/svg" viewBox="0 0 762.05 179.43"><defs><style>.d{fill:none;stroke:#fff;stroke-miterlimit:10;stroke-width:14px;}.e{fill:#fff;}</style></defs><g id="a"/><g id="b"><g id="c"><g><g><path class="d" d="M7,43.58H76.65c32.67,0,59.2,26.53,59.2,59.2v10.45c0,32.67-26.53,59.2-59.2,59.2h-10.45c-32.67,0-59.2-26.53-59.2-59.2V43.58h0Z" transform="translate(-36.58 179.43) rotate(-90)"/><path class="d" d="M55.7,7h40.4c18.95,0,34.34,15.39,34.34,34.34v6.06c0,18.95-15.39,34.34-34.34,34.34h-6.06c-18.95,0-34.34-15.39-34.34-34.34V7h0Z"/></g><g><path class="e" d="M208.71,139.54h-13.45V20.28h14.75v54.12c2.7-5.29,6.64-9.34,11.83-12.15,5.19-2.81,11.02-4.21,17.5-4.21,7.56,0,14.07,1.81,19.52,5.43,5.45,3.62,9.64,8.62,12.56,14.99,2.92,6.38,4.32,13.67,4.21,21.88,0,7.89-1.51,14.96-4.54,21.23-3.03,6.27-7.29,11.15-12.8,14.66-5.51,3.51-12.1,5.27-19.77,5.27-6.27,0-11.99-1.41-17.18-4.21s-9.07-6.86-11.67-12.15l-.97,14.42Zm2.27-39.86c0,5.51,1,10.37,3,14.58,2,4.21,4.86,7.51,8.59,9.88,3.73,2.38,8.13,3.57,13.21,3.57s9.75-1.19,13.37-3.57c3.62-2.37,6.4-5.67,8.34-9.88,1.94-4.21,2.92-9.07,2.92-14.58s-.97-10.18-2.92-14.34c-1.94-4.16-4.73-7.45-8.34-9.88-3.62-2.43-8.08-3.65-13.37-3.65s-9.48,1.19-13.21,3.56c-3.73,2.38-6.59,5.65-8.59,9.8-2,4.16-3,8.99-3,14.5Z"/><path class="e" d="M312.9,60.31l29.49,77.45-9.56,12.64-36.3-90.09h16.37Zm-12.64,114.4l.16-12.15h10.05c2.81,0,5.24-.16,7.29-.49,2.05-.32,3.89-1.27,5.51-2.83,1.62-1.57,3.08-4.19,4.38-7.86l33.06-91.06h16.04l-36.62,98.03c-1.73,4.43-3.89,7.96-6.48,10.61-2.59,2.65-5.4,4.54-8.43,5.67-3.03,1.13-6.1,1.78-9.24,1.94-3.13,.16-6.05,0-8.75-.49-2.7-.49-5.02-.95-6.97-1.38Z"/><path class="e" d="M420.16,139.54h-13.45V20.28h14.75v54.12c2.7-5.29,6.64-9.34,11.83-12.15,5.18-2.81,11.02-4.21,17.5-4.21,7.56,0,14.07,1.81,19.53,5.43,5.45,3.62,9.64,8.62,12.56,14.99,2.92,6.38,4.32,13.67,4.21,21.88,0,7.89-1.51,14.96-4.54,21.23-3.03,6.27-7.29,11.15-12.8,14.66-5.51,3.51-12.1,5.27-19.77,5.27-6.27,0-11.99-1.41-17.18-4.21-5.19-2.81-9.07-6.86-11.67-12.15l-.97,14.42Zm2.27-39.86c0,5.51,1,10.37,3,14.58,2,4.21,4.86,7.51,8.59,9.88,3.73,2.38,8.13,3.57,13.21,3.57s9.75-1.19,13.37-3.57c3.62-2.37,6.4-5.67,8.34-9.88s2.92-9.07,2.92-14.58-.97-10.18-2.92-14.34c-1.94-4.16-4.73-7.45-8.34-9.88-3.62-2.43-8.08-3.65-13.37-3.65s-9.48,1.19-13.21,3.56c-3.73,2.38-6.59,5.65-8.59,9.8-2,4.16-3,8.99-3,14.5Z"/><path class="e" d="M515.59,100c0-8.53,1.56-15.93,4.7-22.2,3.13-6.26,7.53-11.12,13.21-14.58,5.67-3.46,12.18-5.19,19.52-5.19s14.07,1.73,19.53,5.19c5.45,3.46,9.67,8.29,12.64,14.5,2.97,6.21,4.46,13.53,4.46,21.96v5.51h-59.3c.43,7.67,2.73,13.48,6.89,17.42,4.16,3.94,9.53,5.91,16.12,5.91,5.51,0,10.29-1.3,14.34-3.89s6.67-5.89,7.86-9.88h14.26c-1.19,5.4-3.51,10.1-6.97,14.1-3.46,4-7.75,7.1-12.88,9.32-5.13,2.21-10.72,3.32-16.77,3.32-7.45,0-14.02-1.7-19.69-5.1-5.67-3.4-10.07-8.24-13.21-14.5-3.13-6.26-4.7-13.55-4.7-21.87Zm14.91-5.02h44.07c-.11-5.51-1.13-10.02-3.08-13.53-1.95-3.51-4.54-6.16-7.78-7.94-3.24-1.78-6.91-2.67-11.02-2.67-6.27,0-11.48,2.05-15.64,6.16-4.16,4.11-6.35,10.1-6.56,17.99Z"/><path class="e" d="M617.84,100c0-8.53,1.56-15.93,4.7-22.2,3.13-6.26,7.53-11.12,13.21-14.58,5.67-3.46,12.18-5.19,19.52-5.19s14.07,1.73,19.53,5.19c5.45,3.46,9.67,8.29,12.64,14.5,2.97,6.21,4.46,13.53,4.46,21.96v5.51h-59.3c.43,7.67,2.73,13.48,6.89,17.42,4.16,3.94,9.53,5.91,16.12,5.91,5.51,0,10.29-1.3,14.34-3.89s6.67-5.89,7.86-9.88h14.26c-1.19,5.4-3.51,10.1-6.97,14.1-3.46,4-7.75,7.1-12.88,9.32-5.13,2.21-10.72,3.32-16.77,3.32-7.45,0-14.02-1.7-19.69-5.1-5.67-3.4-10.07-8.24-13.21-14.5-3.13-6.26-4.7-13.55-4.7-21.87Zm14.91-5.02h44.07c-.11-5.51-1.13-10.02-3.08-13.53-1.95-3.51-4.54-6.16-7.78-7.94-3.24-1.78-6.91-2.67-11.02-2.67-6.27,0-11.48,2.05-15.64,6.16-4.16,4.11-6.35,10.1-6.56,17.99Z"/><path class="e" d="M716.03,60.31h46.02v12.64h-46.02v-12.64Zm30.62,79.23h-15.07V35.51h15.07v104.03Z"/></g></g></g></g></svg>